<svg xmlns="http://www.w3.org/2000/svg" width="20" height="26">
    <path fill="#FFF" fill-rule="evenodd" d="M15.425 25.997a6.722 6.722 0 0 1-1.915-.294c-2.634-.787-5.036-2.381-7.347-4.872-2.686-2.896-4.61-6.31-5.719-10.144-.499-1.722-.574-3.33-.243-5.214l.003-.023c.236-1.198.643-2.212 1.21-3.015C2.493.912 4.163.561 5.673 1.544c1.67 1.09 2.928 2.643 3.743 4.617.616 1.491.238 2.717-1.124 3.639-.16.109-.32.221-.478.34-.304.227-.299.24-.18.558.958 2.578 2.496 4.757 4.571 6.48-.047.044.016.021.166-.068a26.605 26.605 0 0 1 2.03-1.108c.677-.347 1.437-.215 2.031.349 1.263 1.195 2.228 2.376 2.948 3.614.619 1.062.778 2.217.449 3.251-.328 1.035-1.119 1.866-2.226 2.338a5.498 5.498 0 0 1-2.178.443z"/>
</svg>
