<svg xmlns="http://www.w3.org/2000/svg" width="24" height="24">
    <path fill="#FFF" fill-rule="evenodd" d="M12.218-.001C5.711-.001.436 5.233.436 11.69c0 2.208.618 4.274 1.69 6.035L0 23.998l6.523-2.072a11.809 11.809 0 0 0 5.695 1.454C18.725 23.38 24 18.145 24 11.69 24 5.233 18.725-.001 12.218-.001zm5.858 16.129c-.277.687-1.531 1.313-2.083 1.343-.553.029-.569.428-3.581-.88-3.012-1.311-4.825-4.492-4.968-4.698-.143-.203-1.166-1.663-1.111-3.131.055-1.468.86-2.16 1.146-2.449.288-.288.616-.352.816-.343.201.006.401.039.576.045.175.007.43-.083.658.524.228.606.773 2.097.844 2.248.07.153.113.329.005.524-.108.196-.163.319-.32.487-.157.168-.33.377-.47.506-.157.144-.32.299-.155.604.164.305.73 1.305 1.594 2.129 1.111 1.058 2.068 1.41 2.363 1.571.296.16.472.141.655-.051.182-.192.785-.843.996-1.134.213-.291.411-.234.683-.124.272.109 1.723.886 2.018 1.048.295.16.492.241.563.369.071.127.048.725-.229 1.412z"/>
</svg>
